<svg width="49" height="48" viewBox="0 0 49 48" fill="none" xmlns="http://www.w3.org/2000/svg">
<g clip-path="url(#clip0_2_1729)">
<path d="M22.7059 14.7931C22.3404 15.1596 22.3404 15.7529 22.7059 16.1187C23.0724 16.485 23.6657 16.485 24.0323 16.1187C24.3981 15.7529 24.3981 15.1596 24.0323 14.7931C23.6657 14.4272 23.0724 14.4272 22.7059 14.7931Z" fill="#EC092C"/>
<path d="M46.9589 10.8828L37.451 1.37491C35.6196 -0.457976 32.6547 -0.457976 30.8215 1.37491C29.3823 2.81411 2.92251 29.2739 1.70816 30.4882C-0.123992 32.3204 -0.125457 35.2852 1.70816 37.1177L11.2161 46.6257C12.0836 47.4932 13.2456 47.9997 14.6211 47.9997H32.9583C33.4758 47.9997 33.8958 47.58 33.8958 47.0622C33.8958 46.5447 33.4758 46.1247 32.9583 46.1247H18.3458C18.4169 46.054 46.9197 17.5511 46.9589 17.512C48.7907 15.6798 48.7922 12.715 46.9589 10.8828ZM19.1969 42.6223C18.1005 43.7187 16.3166 43.7187 15.2202 42.6223L5.7112 33.1132C5.1802 32.5822 4.88759 31.8762 4.88759 31.1251C4.88759 30.3744 5.1802 29.6679 5.7112 29.1369L16.7407 18.1074L30.2264 31.5938L19.1969 42.6223ZM3.03347 35.7913C1.93411 34.6927 1.93374 32.9144 3.03384 31.8143L3.05947 31.7887C3.20046 32.7888 3.65859 33.7124 4.38552 34.4393L13.8945 43.9479C14.6398 44.6935 15.5762 45.1345 16.5474 45.2718L16.5195 45.2996C15.4227 46.396 13.6382 46.3964 12.5418 45.2996L3.03347 35.7913ZM45.6329 16.1863L31.5521 30.2678L18.0664 16.7817L32.1475 2.70059C33.2469 1.60122 35.0252 1.60012 36.125 2.70059L45.6332 12.2089C46.733 13.3079 46.7333 15.0858 45.6329 16.1863Z" fill="#EC092C"/>
<path d="M32.1482 5.35144L25.3579 12.1417C24.9917 12.5079 24.9917 13.1015 25.3579 13.4674C25.7242 13.8336 26.3174 13.8336 26.6836 13.4674L33.4739 6.67712C33.8401 6.31091 33.8401 5.71728 33.4739 5.35144C33.1077 4.98523 32.5144 4.98523 32.1482 5.35144Z" fill="#EC092C"/>
<path d="M36.7083 46.1246C36.1905 46.1246 35.7708 46.5447 35.7708 47.0621C35.7708 47.58 36.1905 47.9996 36.7083 47.9996H38.5833C39.1007 47.9996 39.5208 47.58 39.5208 47.0621C39.5208 46.5447 39.1007 46.1246 38.5833 46.1246H36.7083Z" fill="#EC092C"/>
<path d="M42.3333 46.1246C41.8154 46.1246 41.3958 46.5447 41.3958 47.0621C41.3958 47.58 41.8154 47.9996 42.3333 47.9996H44.2079C44.7257 47.9996 45.1454 47.58 45.1454 47.0621C45.1454 46.5447 44.7257 46.1246 44.2079 46.1246H42.3333Z" fill="#EC092C"/>
</g>
<defs>
<clipPath id="clip0_2_1729">
<rect width="48" height="48" fill="white" transform="translate(0.333344)"/>
</clipPath>
</defs>
</svg>
