<svg width="49" height="48" viewBox="0 0 49 48" fill="none" xmlns="http://www.w3.org/2000/svg">
<g clip-path="url(#clip0_2_1740)">
<path d="M47.9167 33.1875H47.7292V32.25C47.7155 29.6622 46.7345 27.1731 44.9789 25.2718C43.2233 23.3705 40.8202 22.1946 38.2417 21.975L31.9154 21.4688C31.1181 21.4011 30.3749 21.0376 29.8321 20.4497C29.2892 19.8617 28.9861 19.0919 28.9822 18.2917V7.22475C29.4123 7.10277 29.791 6.84409 30.0611 6.48783C30.3311 6.13156 30.4779 5.69706 30.4792 5.25V2.25C30.4788 1.70311 30.2614 1.17874 29.8747 0.792031C29.4879 0.405323 28.9636 0.187897 28.4167 0.1875H11.9167C11.3698 0.187897 10.8454 0.405323 10.4587 0.792031C10.072 1.17874 9.85458 1.70311 9.85419 2.25V5.25C9.85565 5.69745 10.0028 6.13224 10.2735 6.48856C10.5442 6.84487 10.9235 7.10331 11.3542 7.22475V9.1875H2.91669C2.3698 9.1879 1.84543 9.40532 1.45872 9.79203C1.07201 10.1787 0.854584 10.7031 0.854187 11.25V14.25C0.85565 14.6975 1.00285 15.1322 1.2735 15.4886C1.54416 15.8449 1.92353 16.1033 2.35419 16.2248V42.1875H2.16669C2.0175 42.1875 1.87443 42.2468 1.76894 42.3523C1.66345 42.4577 1.60419 42.6008 1.60419 42.75V47.25C1.60419 47.3992 1.66345 47.5423 1.76894 47.6477C1.87443 47.7532 2.0175 47.8125 2.16669 47.8125H12.6667C12.8159 47.8125 12.9589 47.7532 13.0644 47.6477C13.1699 47.5423 13.2292 47.3992 13.2292 47.25V46.3125H15.4334L16.7692 47.6475C16.8213 47.6998 16.8832 47.7414 16.9515 47.7697C17.0197 47.798 17.0928 47.8126 17.1667 47.8125H38.9167C39.0659 47.8125 39.2089 47.7532 39.3144 47.6477C39.4199 47.5423 39.4792 47.3992 39.4792 47.25V42.75C39.4792 42.6008 39.4199 42.4577 39.3144 42.3523C39.2089 42.2468 39.0659 42.1875 38.9167 42.1875H38.7292V41.25C38.7256 40.4276 38.6224 39.6086 38.4217 38.811H47.9167C48.0659 38.811 48.2089 38.7517 48.3144 38.6462C48.4199 38.5408 48.4792 38.3977 48.4792 38.2485V33.75C48.4792 33.6008 48.4199 33.4577 48.3144 33.3523C48.2089 33.2468 48.0659 33.1875 47.9167 33.1875ZM38.4089 23.127C40.6549 23.3807 42.7298 24.4496 44.2403 26.1311C45.7507 27.8126 46.5919 29.9898 46.6042 32.25V33.1875H34.9792V33.075C34.9792 30.1582 35.5859 26.1 38.4089 23.127ZM5.91669 33.1875H3.47919V27.5625H6.66669C7.81001 27.5611 8.9061 27.1063 9.71455 26.2979C10.523 25.4894 10.9778 24.3933 10.9792 23.25V22.5C10.9802 21.6549 11.3163 20.8448 11.9139 20.2472C12.5114 19.6496 13.3216 19.3135 14.1667 19.3125H18.8542V27.288C18.8595 28.3708 19.2697 29.4124 20.0042 30.2079C20.7387 31.0035 21.7443 31.4954 22.8232 31.587L28.0192 32.0025C25.4324 35.1577 24.8542 39.156 24.8542 42.075V42.1875H10.9792V38.25C10.9776 36.9078 10.4437 35.6211 9.49466 34.672C8.5456 33.723 7.25886 33.1891 5.91669 33.1875ZM9.85419 38.25V42.1875H3.47919V34.3125H5.91669C6.96061 34.3137 7.96144 34.7289 8.6996 35.4671C9.43777 36.2052 9.853 37.2061 9.85419 38.25ZM3.47919 26.4375V16.3125H18.8542V18.1875H14.1667C13.0234 18.1889 11.9273 18.6437 11.1188 19.4521C10.3104 20.2606 9.85558 21.3567 9.85419 22.5V23.25C9.85319 24.0951 9.51705 24.9052 8.91949 25.5028C8.32194 26.1004 7.51176 26.4365 6.66669 26.4375H3.47919ZM25.9792 42.075C25.9792 39.1582 26.5859 35.1 29.4089 32.127C31.6549 32.3807 33.7298 33.4496 35.2403 35.1311C36.7507 36.8126 37.5919 38.9898 37.6042 41.25V42.1875H25.9792V42.075ZM31.8232 22.587L37.0192 23.0025C34.5944 25.9597 33.9344 29.6565 33.8617 32.5125C32.4686 31.6342 30.8833 31.1066 29.2417 30.975L22.9154 30.4688C22.1181 30.4011 21.3749 30.0376 20.8321 29.4497C20.2892 28.8617 19.9861 28.0919 19.9822 27.2917V16.2248C20.4128 16.1033 20.7922 15.8449 21.0629 15.4886C21.3335 15.1322 21.4807 14.6975 21.4822 14.25V11.25C21.4817 11.1162 21.4682 10.9829 21.4417 10.8517C21.9505 10.5049 22.5509 10.3172 23.1667 10.3125H27.8542V18.288C27.8595 19.3708 28.2697 20.4124 29.0042 21.2079C29.7387 22.0035 30.7443 22.4954 31.8232 22.587ZM19.4167 9.1875H12.4792V7.3125H27.8542V9.1875H23.1667C22.3692 9.18944 21.5888 9.41836 20.9167 9.8475C20.7254 9.6403 20.4935 9.47475 20.2355 9.3612C19.9774 9.24764 19.6986 9.18851 19.4167 9.1875ZM10.9792 5.25V2.25C10.9796 2.00148 11.0785 1.76325 11.2542 1.58753C11.4299 1.4118 11.6682 1.3129 11.9167 1.3125H28.4167C28.6652 1.3129 28.9034 1.4118 29.0792 1.58753C29.2549 1.76325 29.3538 2.00148 29.3542 2.25V5.25C29.3538 5.49852 29.2549 5.73674 29.0792 5.91247C28.9034 6.0882 28.6652 6.1871 28.4167 6.1875H11.9167C11.6682 6.1871 11.4299 6.0882 11.2542 5.91247C11.0785 5.73674 10.9796 5.49852 10.9792 5.25ZM1.97919 14.25V11.25C1.97958 11.0015 2.07848 10.7633 2.25421 10.5875C2.42994 10.4118 2.66817 10.3129 2.91669 10.3125H19.4167C19.6652 10.3129 19.9034 10.4118 20.0792 10.5875C20.2549 10.7633 20.3538 11.0015 20.3542 11.25V14.25C20.3538 14.4985 20.2549 14.7367 20.0792 14.9125C19.9034 15.0882 19.6652 15.1871 19.4167 15.1875H2.91669C2.66817 15.1871 2.42994 15.0882 2.25421 14.9125C2.07848 14.7367 1.97958 14.4985 1.97919 14.25ZM38.3542 46.6875H36.3719V45.75C36.3719 45.6008 36.3127 45.4577 36.2072 45.3523C36.1017 45.2468 35.9586 45.1875 35.8094 45.1875C35.6603 45.1875 35.5172 45.2468 35.4117 45.3523C35.3062 45.4577 35.2469 45.6008 35.2469 45.75V46.6875H33.2647V45.75C33.2647 45.6008 33.2054 45.4577 33.0999 45.3523C32.9944 45.2468 32.8514 45.1875 32.7022 45.1875C32.553 45.1875 32.4099 45.2468 32.3044 45.3523C32.1989 45.4577 32.1397 45.6008 32.1397 45.75V46.6875H30.1574V45.75C30.1574 45.6008 30.0982 45.4577 29.9927 45.3523C29.8872 45.2468 29.7441 45.1875 29.5949 45.1875C29.4458 45.1875 29.3027 45.2468 29.1972 45.3523C29.0917 45.4577 29.0324 45.6008 29.0324 45.75V46.6875H27.0509V45.75C27.0509 45.6008 26.9917 45.4577 26.8862 45.3523C26.7807 45.2468 26.6376 45.1875 26.4884 45.1875C26.3393 45.1875 26.1962 45.2468 26.0907 45.3523C25.9852 45.4577 25.9259 45.6008 25.9259 45.75V46.6875H23.9437V45.75C23.9437 45.6008 23.8844 45.4577 23.7789 45.3523C23.6734 45.2468 23.5304 45.1875 23.3812 45.1875C23.232 45.1875 23.0889 45.2468 22.9834 45.3523C22.878 45.4577 22.8187 45.6008 22.8187 45.75V46.6875H20.8364V45.75C20.8364 45.6008 20.7772 45.4577 20.6717 45.3523C20.5662 45.2468 20.4231 45.1875 20.2739 45.1875C20.1248 45.1875 19.9817 45.2468 19.8762 45.3523C19.7707 45.4577 19.7114 45.6008 19.7114 45.75V46.6875H17.3999L16.0642 45.3525C16.0121 45.3002 15.9501 45.2586 15.8819 45.2303C15.8137 45.202 15.7405 45.1874 15.6667 45.1875H12.6667C12.5175 45.1875 12.3744 45.2468 12.2689 45.3523C12.1635 45.4577 12.1042 45.6008 12.1042 45.75V46.6875H9.72894V45.75C9.72894 45.6008 9.66967 45.4577 9.56418 45.3523C9.4587 45.2468 9.31562 45.1875 9.16644 45.1875C9.01725 45.1875 8.87418 45.2468 8.76869 45.3523C8.6632 45.4577 8.60394 45.6008 8.60394 45.75V46.6875H6.22944V45.75C6.22944 45.6008 6.17017 45.4577 6.06468 45.3523C5.9592 45.2468 5.81612 45.1875 5.66694 45.1875C5.51775 45.1875 5.37468 45.2468 5.26919 45.3523C5.1637 45.4577 5.10444 45.6008 5.10444 45.75V46.6875H2.72919V43.3125H38.3542V46.6875ZM47.3542 37.6875H45.3719V36.75C45.3719 36.6008 45.3127 36.4577 45.2072 36.3523C45.1017 36.2468 44.9586 36.1875 44.8094 36.1875C44.6603 36.1875 44.5172 36.2468 44.4117 36.3523C44.3062 36.4577 44.2469 36.6008 44.2469 36.75V37.6875H42.2647V36.75C42.2647 36.6008 42.2054 36.4577 42.0999 36.3523C41.9944 36.2468 41.8514 36.1875 41.7022 36.1875C41.553 36.1875 41.4099 36.2468 41.3044 36.3523C41.199 36.4577 41.1397 36.6008 41.1397 36.75V37.6875H38.0767C37.6118 36.4413 36.9124 35.2956 36.0164 34.3125H47.3542V37.6875Z" fill="#EC092C"/>
</g>
<defs>
<clipPath id="clip0_2_1740">
<rect width="48" height="48" fill="white" transform="translate(0.666687)"/>
</clipPath>
</defs>
</svg>
