<svg width="48" height="48" viewBox="0 0 48 48" fill="none" xmlns="http://www.w3.org/2000/svg">
<path d="M15.9312 30.2541C14.8852 29.1925 13.7103 28.2584 12.4297 27.4757L2.95566 21.6841C1.70203 20.9177 0.9375 19.5543 0.9375 18.085C0.9375 16.2774 2.08922 14.6707 3.801 14.0902L5.76328 13.4248" stroke="#EC092C" stroke-width="1.5625" stroke-miterlimit="10" stroke-linecap="round" stroke-linejoin="round"/>
<path d="M43.2458 38.7387H47.0624C47.0624 40.8573 45.3449 42.5749 43.2262 42.5749H34.5477C29.4314 42.5749 24.604 40.4911 21.1132 36.9115" stroke="#EC092C" stroke-width="1.5625" stroke-miterlimit="10" stroke-linecap="round" stroke-linejoin="round"/>
<path d="M30.2671 14.5528C27.4999 15.8866 24.0775 15.4061 21.7825 13.111C20.224 11.5526 19.5023 9.47432 19.6171 7.43441C19.6471 6.90191 19.4578 6.38057 19.0859 5.99826C18.7045 5.60629 18.1719 5.39338 17.6261 5.42873C12.3265 5.77232 7.19045 9.17123 5.79236 13.473" stroke="#EC092C" stroke-width="1.5625" stroke-miterlimit="10" stroke-linecap="round" stroke-linejoin="round"/>
<path d="M23.3494 14.3102C24.2584 12.126 26.3729 10.5958 28.8524 10.4598L34.0011 25.32C34.8585 27.7943 36.6838 29.8144 39.0587 30.9174L43.3395 32.9054C45.61 33.9596 47.0625 36.2357 47.0625 38.7391H36.4335C30.7562 38.7391 25.4387 35.9594 22.1982 31.2977C20.2652 28.517 17.8697 26.0884 15.1158 24.1176C11.6909 21.6666 8.80871 18.5349 6.64993 14.9186L5.77881 13.4593" stroke="#EC092C" stroke-width="1.5625" stroke-miterlimit="10" stroke-linecap="round" stroke-linejoin="round"/>
<path d="M11.8702 7.01648C13.9073 8.93751 15.0041 11.7901 14.5633 14.7701C14.2052 17.1922 12.8992 19.2398 11.0771 20.5924" stroke="#EC092C" stroke-width="1.5625" stroke-miterlimit="10" stroke-linecap="round" stroke-linejoin="round"/>
<path d="M25.7219 15.1711L29.7487 26.7932C30.2611 28.2721 31.0178 29.6476 31.9709 30.8665C34.1632 33.6701 38.2468 34.092 40.9764 31.8081" stroke="#EC092C" stroke-width="1.5625" stroke-miterlimit="10" stroke-linecap="round" stroke-linejoin="round"/>
<path d="M27.5178 20.0512L31.5504 18.4021" stroke="#EC092C" stroke-width="1.5625" stroke-miterlimit="10" stroke-linecap="round" stroke-linejoin="round"/>
<path d="M28.8171 23.8391L32.7578 22.2234" stroke="#EC092C" stroke-width="1.5625" stroke-miterlimit="10" stroke-linecap="round" stroke-linejoin="round"/>
<path d="M30.3821 27.9998L34.1469 26.1381" stroke="#EC092C" stroke-width="1.5625" stroke-miterlimit="10" stroke-linecap="round" stroke-linejoin="round"/>
<path d="M32.837 31.682L36.4622 29.3416" stroke="#EC092C" stroke-width="1.5625" stroke-miterlimit="10" stroke-linecap="round" stroke-linejoin="round"/>
<path d="M34.5478 42.575H7.76935" stroke="#EC092C" stroke-width="1.5625" stroke-miterlimit="10" stroke-linecap="round" stroke-linejoin="round"/>
<path d="M3.35156 37.537H0.9375" stroke="#EC092C" stroke-width="1.5625" stroke-miterlimit="10" stroke-linecap="round" stroke-linejoin="round"/>
<path d="M14.66 37.537H7.047" stroke="#EC092C" stroke-width="1.5625" stroke-miterlimit="10" stroke-linecap="round" stroke-linejoin="round"/>
<path d="M10.3034 32.4991H0.9375" stroke="#EC092C" stroke-width="1.5625" stroke-miterlimit="10" stroke-linecap="round" stroke-linejoin="round"/>
</svg>
